<svg width="68" height="12" viewBox="0 0 68 12" fill="none" xmlns="http://www.w3.org/2000/svg">
<path fill-rule="evenodd" clip-rule="evenodd" d="M46.5894 0.160004H61.4106C62.6587 0.160004 63.1113 0.28996 63.5676 0.533989C64.0239 0.778019 64.382 1.13612 64.626 1.59242C64.87 2.04872 65 2.50132 65 3.74944V8.07056C65 9.31869 64.87 9.77129 64.626 10.2276C64.382 10.6839 64.0239 11.042 63.5676 11.286C63.1113 11.53 62.6587 11.66 61.4106 11.66H46.5894C45.3413 11.66 44.8887 11.53 44.4324 11.286C43.9761 11.042 43.618 10.6839 43.374 10.2276C43.13 9.77129 43 9.31869 43 8.07056V3.74944C43 2.50132 43.13 2.04872 43.374 1.59242C43.618 1.13612 43.9761 0.778019 44.4324 0.533989C44.8887 0.28996 45.3413 0.160004 46.5894 0.160004ZM46.5894 1.16C45.6025 1.16 45.2579 1.22654 44.904 1.4158C44.622 1.56663 44.4066 1.78199 44.2558 2.06402C44.0665 2.41791 44 2.76246 44 3.74944V8.07056C44 9.05754 44.0665 9.4021 44.2558 9.75599C44.4066 10.038 44.622 10.2534 44.904 10.4042C45.2579 10.5935 45.6025 10.66 46.5894 10.66H61.4106C62.3975 10.66 62.7421 10.5935 63.096 10.4042C63.378 10.2534 63.5934 10.038 63.7442 9.75599C63.9335 9.4021 64 9.05754 64 8.07056V3.74944C64 2.76246 63.9335 2.41791 63.7442 2.06402C63.5934 1.78199 63.378 1.56663 63.096 1.4158C62.7421 1.22654 62.3975 1.16 61.4106 1.16H46.5894ZM67.5 5.85001C67.5 7.08658 66 7.85001 66 7.85001V3.85001C66 3.85001 67.5 4.61343 67.5 5.85001Z" fill="#0C1A30" fill-opacity="0.3"/>
<rect x="45" y="2.07667" width="18" height="7.66667" rx="1.6" fill="#0C1A30"/>
<path fill-rule="evenodd" clip-rule="evenodd" d="M14.623 1.5659C14.6 1.68182 14.6 1.82121 14.6 2.1V9.80001C14.6 10.0788 14.6 10.2182 14.623 10.3341C14.7177 10.8101 15.0899 11.1823 15.5659 11.2769C15.6818 11.3 15.8212 11.3 16.1 11.3C16.3788 11.3 16.5182 11.3 16.6341 11.2769C17.1101 11.1823 17.4822 10.8101 17.5769 10.3341C17.6 10.2182 17.6 10.0788 17.6 9.80001V2.10001C17.6 1.82121 17.6 1.68182 17.5769 1.5659C17.4822 1.08987 17.1101 0.717752 16.6341 0.623064C16.5182 0.600006 16.3788 0.600006 16.1 0.600006C15.8212 0.600006 15.6818 0.600006 15.5659 0.623064C15.0899 0.717752 14.7177 1.08987 14.623 1.5659ZM9.89999 4.50001C9.89999 4.22121 9.89999 4.08182 9.92305 3.9659C10.0177 3.48987 10.3899 3.11775 10.8659 3.02307C10.9818 3.00001 11.1212 3.00001 11.4 3.00001C11.6788 3.00001 11.8182 3.00001 11.9341 3.02307C12.4101 3.11775 12.7822 3.48987 12.8769 3.9659C12.9 4.08182 12.9 4.22121 12.9 4.50001V9.80001C12.9 10.0788 12.9 10.2182 12.8769 10.3341C12.7822 10.8101 12.4101 11.1823 11.9341 11.277C11.8182 11.3 11.6788 11.3 11.4 11.3C11.1212 11.3 10.9818 11.3 10.8659 11.277C10.3899 11.1823 10.0177 10.8101 9.92305 10.3341C9.89999 10.2182 9.89999 10.0788 9.89999 9.80001V4.50001ZM5.32305 6.2659C5.29999 6.38182 5.29999 6.52122 5.29999 6.80001V9.80001C5.29999 10.0788 5.29999 10.2182 5.32305 10.3341C5.41773 10.8101 5.78985 11.1823 6.26588 11.277C6.3818 11.3 6.52119 11.3 6.79999 11.3C7.07878 11.3 7.21818 11.3 7.3341 11.277C7.81012 11.1823 8.18224 10.8101 8.27693 10.3341C8.29999 10.2182 8.29999 10.0788 8.29999 9.80001V6.80001C8.29999 6.52122 8.29999 6.38182 8.27693 6.2659C8.18224 5.78987 7.81012 5.41776 7.3341 5.32307C7.21818 5.30001 7.07878 5.30001 6.79999 5.30001C6.52119 5.30001 6.3818 5.30001 6.26588 5.32307C5.78985 5.41776 5.41773 5.78987 5.32305 6.2659ZM0.523058 8.2659C0.5 8.38182 0.5 8.52122 0.5 8.80001V9.80001C0.5 10.0788 0.5 10.2182 0.523058 10.3341C0.617746 10.8101 0.989863 11.1823 1.46589 11.277C1.58181 11.3 1.72121 11.3 2 11.3C2.27879 11.3 2.41819 11.3 2.53411 11.277C3.01014 11.1823 3.38225 10.8101 3.47694 10.3341C3.5 10.2182 3.5 10.0788 3.5 9.80001V8.80001C3.5 8.52122 3.5 8.38182 3.47694 8.2659C3.38225 7.78987 3.01014 7.41776 2.53411 7.32307C2.41819 7.30001 2.27879 7.30001 2 7.30001C1.72121 7.30001 1.58181 7.30001 1.46589 7.32307C0.989863 7.41776 0.617746 7.78987 0.523058 8.2659Z" fill="#0C1A30"/>
<path fill-rule="evenodd" clip-rule="evenodd" d="M30.3005 2.69637C32.5349 2.69647 34.6839 3.55502 36.3033 5.09458C36.4252 5.21344 36.6201 5.21194 36.7402 5.09122L37.9059 3.9148C37.9667 3.85357 38.0006 3.77063 38.0001 3.68434C37.9996 3.59804 37.9647 3.5155 37.9032 3.45499C33.6529 -0.618318 26.9475 -0.618318 22.6972 3.45499C22.6356 3.51546 22.6007 3.59797 22.6001 3.68427C22.5995 3.77056 22.6334 3.85353 22.6941 3.9148L23.8601 5.09122C23.9802 5.21212 24.1752 5.21362 24.2971 5.09458C25.9167 3.55492 28.0659 2.69636 30.3005 2.69637ZM30.3005 6.52376C31.5282 6.52368 32.712 6.97999 33.622 7.80403C33.7451 7.92098 33.939 7.91845 34.059 7.79832L35.2233 6.6219C35.2846 6.5602 35.3187 6.47649 35.3178 6.3895C35.3169 6.30251 35.2812 6.21951 35.2186 6.15907C32.4474 3.58132 28.1559 3.58132 25.3848 6.15907C25.3222 6.21951 25.2865 6.30256 25.2857 6.38957C25.2848 6.47658 25.319 6.56029 25.3804 6.6219L26.5444 7.79832C26.6644 7.91845 26.8583 7.92098 26.9813 7.80403C27.8908 6.98054 29.0737 6.52426 30.3005 6.52376ZM32.5381 9.33136C32.6003 9.27024 32.6346 9.18614 32.6328 9.09892C32.6311 9.01169 32.5934 8.92906 32.5286 8.87054C31.2424 7.78264 29.3586 7.78264 28.0724 8.87054C28.0076 8.92901 27.9699 9.01161 27.968 9.09884C27.9662 9.18607 28.0004 9.2702 28.0626 9.33136L30.077 11.3639C30.136 11.4236 30.2165 11.4572 30.3005 11.4572C30.3845 11.4572 30.465 11.4236 30.524 11.3639L32.5381 9.33136Z" fill="#0C1A30"/>
</svg>
