<svg width="20" height="20" viewBox="0 0 20 20" fill="none" xmlns="http://www.w3.org/2000/svg">
<path d="M5 3.4375H15V17.1875H5V3.4375Z" fill="#E6E7E8"/>
<path d="M3.125 3.4375C1.05406 3.4375 0 4.97656 0 6.875V13.75C0 15.6484 1.05406 17.1875 3.125 17.1875H5V3.4375H3.125ZM16.875 3.4375H15V17.1875H16.875C18.9459 17.1875 20 15.6484 20 13.75V6.875C20 4.97656 18.9459 3.4375 16.875 3.4375Z" fill="#EC1C24"/>
<path fill-rule="evenodd" clip-rule="evenodd" d="M13.831 10.2003C13.6882 10.1356 13.6642 10.09 13.7067 9.93217C13.8126 9.53749 13.9217 9.14436 14.0288 8.7503C14.0379 8.71811 14.046 8.68499 14.0582 8.6378C13.9257 8.66436 13.802 8.68811 13.6782 8.71499C13.4279 8.76811 13.1792 8.82217 12.9295 8.87499C12.7663 8.90905 12.6917 8.86342 12.6454 8.70217C12.602 8.54967 12.5592 8.39686 12.4895 8.22249C12.4735 8.24874 12.462 8.27905 12.4417 8.30124C12.1557 8.62405 11.8682 8.94592 11.5804 9.26874C11.4913 9.36686 11.3923 9.40967 11.3223 9.37092C11.2195 9.3128 11.2232 9.20999 11.2401 9.11405C11.316 8.69499 11.3948 8.27686 11.4729 7.8578C11.5301 7.55374 11.5873 7.25124 11.646 6.93436C11.6163 6.94561 11.5963 6.95124 11.5785 6.95999C11.4167 7.04374 11.2567 7.12905 11.0945 7.21092C10.8957 7.31061 10.7957 7.2778 10.692 7.08561C10.4723 6.67842 10.2545 6.27061 10.0354 5.86311C10.0242 5.84311 10.0167 5.82311 9.99947 5.79749L9.96354 5.86311C9.7451 6.27061 9.52697 6.67842 9.3076 7.08561C9.20354 7.2778 9.10322 7.31092 8.90447 7.21092C8.74229 7.12905 8.58228 7.04374 8.42041 6.95999C8.4026 6.95124 8.3826 6.94561 8.35291 6.93436C8.41166 7.25124 8.46885 7.55374 8.52604 7.8578C8.60416 8.27561 8.68322 8.69374 8.75854 9.11405C8.77604 9.2103 8.77947 9.31311 8.67666 9.37092C8.60635 9.40967 8.5076 9.36686 8.41885 9.26874C8.13072 8.94592 7.84322 8.62405 7.55729 8.30124C7.53697 8.27905 7.5251 8.24874 7.50947 8.22249C7.43979 8.39717 7.39697 8.54967 7.35354 8.70217C7.30729 8.86342 7.23197 8.90905 7.06947 8.87499C6.81979 8.82217 6.57072 8.76811 6.32072 8.71499C6.19697 8.68811 6.07322 8.66436 5.94072 8.6378C5.95291 8.68499 5.96072 8.71842 5.9701 8.7503C6.07729 9.14436 6.18635 9.5378 6.29229 9.93217C6.33479 10.0903 6.31072 10.1356 6.16791 10.2003C6.03572 10.2603 5.90385 10.3237 5.76416 10.389C5.78916 10.4115 5.80322 10.425 5.81885 10.4378C6.15135 10.7084 6.48385 10.9781 6.81697 11.2487C7.13916 11.5106 7.4601 11.7722 7.7826 12.0331C7.89541 12.124 7.9326 12.2347 7.88604 12.3728C7.85979 12.454 7.83635 12.5353 7.81197 12.6169C7.7826 12.7128 7.75385 12.8094 7.72135 12.919C8.04104 12.8737 8.34291 12.8315 8.64697 12.7894C9.00354 12.7403 9.35979 12.69 9.71729 12.645C9.83979 12.629 9.93072 12.7225 9.92572 12.844C9.89885 13.4887 9.83666 14.2165 9.83229 14.8272H10.1667C10.1623 14.2165 10.1004 13.489 10.0735 12.844C10.0679 12.7225 10.1592 12.629 10.2817 12.645C10.6392 12.69 10.9954 12.7403 11.352 12.7894C11.656 12.8315 11.9579 12.874 12.2776 12.919C12.2451 12.8094 12.2163 12.7128 12.187 12.6169C12.1626 12.535 12.1392 12.454 12.1129 12.3728C12.0663 12.2347 12.1035 12.124 12.2163 12.0331C12.5392 11.7722 12.8598 11.5106 13.182 11.2487C13.5151 10.9784 13.8476 10.7084 14.1801 10.4378C14.1957 10.425 14.2098 10.4115 14.2348 10.389C14.0948 10.3234 13.9635 10.2603 13.831 10.2003Z" fill="#EC1C24"/>
</svg>
