<svg width="50" height="58" viewBox="0 0 50 58" fill="none" xmlns="http://www.w3.org/2000/svg">
<path fill-rule="evenodd" clip-rule="evenodd" d="M2.55835 4.91526C3.71078 4.91526 4.64501 3.81494 4.64501 2.45763C4.64501 1.10032 3.71078 0 2.55835 0C1.40591 0 0.47168 1.10032 0.47168 2.45763C0.47168 3.81494 1.40591 4.91526 2.55835 4.91526Z" fill="#0C1A30" fill-opacity="0.05"/>
<path fill-rule="evenodd" clip-rule="evenodd" d="M13.8259 4.91526C14.9784 4.91526 15.9126 3.81494 15.9126 2.45763C15.9126 1.10032 14.9784 0 13.8259 0C12.6735 0 11.7393 1.10032 11.7393 2.45763C11.7393 3.81494 12.6735 4.91526 13.8259 4.91526Z" fill="#0C1A30" fill-opacity="0.05"/>
<path fill-rule="evenodd" clip-rule="evenodd" d="M25.5117 4.91526C26.6641 4.91526 27.5984 3.81494 27.5984 2.45763C27.5984 1.10032 26.6641 0 25.5117 0C24.3593 0 23.425 1.10032 23.425 2.45763C23.425 3.81494 24.3593 4.91526 25.5117 4.91526Z" fill="#0C1A30" fill-opacity="0.05"/>
<path fill-rule="evenodd" clip-rule="evenodd" d="M2.55835 18.1867C3.71078 18.1867 4.64501 17.0864 4.64501 15.7291C4.64501 14.3718 3.71078 13.2715 2.55835 13.2715C1.40591 13.2715 0.47168 14.3718 0.47168 15.7291C0.47168 17.0864 1.40591 18.1867 2.55835 18.1867Z" fill="#0C1A30" fill-opacity="0.05"/>
<path fill-rule="evenodd" clip-rule="evenodd" d="M13.8259 18.1867C14.9784 18.1867 15.9126 17.0864 15.9126 15.7291C15.9126 14.3718 14.9784 13.2715 13.8259 13.2715C12.6735 13.2715 11.7393 14.3718 11.7393 15.7291C11.7393 17.0864 12.6735 18.1867 13.8259 18.1867Z" fill="#0C1A30" fill-opacity="0.05"/>
<path fill-rule="evenodd" clip-rule="evenodd" d="M25.5115 18.1867C26.6639 18.1867 27.5981 17.0864 27.5981 15.7291C27.5981 14.3718 26.6639 13.2715 25.5115 13.2715C24.359 13.2715 23.4248 14.3718 23.4248 15.7291C23.4248 17.0864 24.359 18.1867 25.5115 18.1867Z" fill="#0C1A30" fill-opacity="0.05"/>
<path fill-rule="evenodd" clip-rule="evenodd" d="M2.55835 31.9485C3.71078 31.9485 4.64501 30.8481 4.64501 29.4908C4.64501 28.1335 3.71078 27.0332 2.55835 27.0332C1.40591 27.0332 0.47168 28.1335 0.47168 29.4908C0.47168 30.8481 1.40591 31.9485 2.55835 31.9485Z" fill="#0C1A30" fill-opacity="0.05"/>
<path fill-rule="evenodd" clip-rule="evenodd" d="M13.8259 31.9485C14.9784 31.9485 15.9126 30.8481 15.9126 29.4908C15.9126 28.1335 14.9784 27.0332 13.8259 27.0332C12.6735 27.0332 11.7393 28.1335 11.7393 29.4908C11.7393 30.8481 12.6735 31.9485 13.8259 31.9485Z" fill="#0C1A30" fill-opacity="0.05"/>
<path fill-rule="evenodd" clip-rule="evenodd" d="M25.5115 31.9485C26.6639 31.9485 27.5981 30.8481 27.5981 29.4908C27.5981 28.1335 26.6639 27.0332 25.5115 27.0332C24.359 27.0332 23.4248 28.1335 23.4248 29.4908C23.4248 30.8481 24.359 31.9485 25.5115 31.9485Z" fill="#0C1A30" fill-opacity="0.05"/>
<path fill-rule="evenodd" clip-rule="evenodd" d="M2.55835 44.7297C3.71078 44.7297 4.64501 43.6294 4.64501 42.2721C4.64501 40.9148 3.71078 39.8145 2.55835 39.8145C1.40591 39.8145 0.47168 40.9148 0.47168 42.2721C0.47168 43.6294 1.40591 44.7297 2.55835 44.7297Z" fill="#0C1A30" fill-opacity="0.05"/>
<path fill-rule="evenodd" clip-rule="evenodd" d="M13.8259 44.7297C14.9784 44.7297 15.9126 43.6294 15.9126 42.2721C15.9126 40.9148 14.9784 39.8145 13.8259 39.8145C12.6735 39.8145 11.7393 40.9148 11.7393 42.2721C11.7393 43.6294 12.6735 44.7297 13.8259 44.7297Z" fill="#0C1A30" fill-opacity="0.05"/>
<path fill-rule="evenodd" clip-rule="evenodd" d="M25.5115 44.7297C26.6639 44.7297 27.5981 43.6294 27.5981 42.2721C27.5981 40.9148 26.6639 39.8145 25.5115 39.8145C24.359 39.8145 23.4248 40.9148 23.4248 42.2721C23.4248 43.6294 24.359 44.7297 25.5115 44.7297Z" fill="#0C1A30" fill-opacity="0.05"/>
<path fill-rule="evenodd" clip-rule="evenodd" d="M2.55835 57.9992C3.71078 57.9992 4.64501 56.8989 4.64501 55.5416C4.64501 54.1843 3.71078 53.084 2.55835 53.084C1.40591 53.084 0.47168 54.1843 0.47168 55.5416C0.47168 56.8989 1.40591 57.9992 2.55835 57.9992Z" fill="#0C1A30" fill-opacity="0.05"/>
<path fill-rule="evenodd" clip-rule="evenodd" d="M13.8259 57.9992C14.9784 57.9992 15.9126 56.8989 15.9126 55.5416C15.9126 54.1843 14.9784 53.084 13.8259 53.084C12.6735 53.084 11.7393 54.1843 11.7393 55.5416C11.7393 56.8989 12.6735 57.9992 13.8259 57.9992Z" fill="#0C1A30" fill-opacity="0.05"/>
<path fill-rule="evenodd" clip-rule="evenodd" d="M25.5115 57.9992C26.6639 57.9992 27.5981 56.8989 27.5981 55.5416C27.5981 54.1843 26.6639 53.084 25.5115 53.084C24.359 53.084 23.4248 54.1843 23.4248 55.5416C23.4248 56.8989 24.359 57.9992 25.5115 57.9992Z" fill="#0C1A30" fill-opacity="0.05"/>
<path fill-rule="evenodd" clip-rule="evenodd" d="M36.3621 4.91526C37.5145 4.91526 38.4487 3.81494 38.4487 2.45763C38.4487 1.10032 37.5145 0 36.3621 0C35.2096 0 34.2754 1.10032 34.2754 2.45763C34.2754 3.81494 35.2096 4.91526 36.3621 4.91526Z" fill="#0C1A30" fill-opacity="0.05"/>
<path fill-rule="evenodd" clip-rule="evenodd" d="M36.3621 18.1867C37.5145 18.1867 38.4487 17.0864 38.4487 15.7291C38.4487 14.3718 37.5145 13.2715 36.3621 13.2715C35.2096 13.2715 34.2754 14.3718 34.2754 15.7291C34.2754 17.0864 35.2096 18.1867 36.3621 18.1867Z" fill="#0C1A30" fill-opacity="0.05"/>
<path fill-rule="evenodd" clip-rule="evenodd" d="M36.3621 31.9485C37.5145 31.9485 38.4487 30.8481 38.4487 29.4908C38.4487 28.1335 37.5145 27.0332 36.3621 27.0332C35.2096 27.0332 34.2754 28.1335 34.2754 29.4908C34.2754 30.8481 35.2096 31.9485 36.3621 31.9485Z" fill="#0C1A30" fill-opacity="0.05"/>
<path fill-rule="evenodd" clip-rule="evenodd" d="M36.3621 44.7297C37.5145 44.7297 38.4487 43.6294 38.4487 42.2721C38.4487 40.9148 37.5145 39.8145 36.3621 39.8145C35.2096 39.8145 34.2754 40.9148 34.2754 42.2721C34.2754 43.6294 35.2096 44.7297 36.3621 44.7297Z" fill="#0C1A30" fill-opacity="0.05"/>
<path fill-rule="evenodd" clip-rule="evenodd" d="M36.3621 57.9992C37.5145 57.9992 38.4487 56.8989 38.4487 55.5416C38.4487 54.1843 37.5145 53.084 36.3621 53.084C35.2096 53.084 34.2754 54.1843 34.2754 55.5416C34.2754 56.8989 35.2096 57.9992 36.3621 57.9992Z" fill="#0C1A30" fill-opacity="0.05"/>
<path fill-rule="evenodd" clip-rule="evenodd" d="M47.6306 4.91526C48.783 4.91526 49.7173 3.81494 49.7173 2.45763C49.7173 1.10032 48.783 0 47.6306 0C46.4782 0 45.5439 1.10032 45.5439 2.45763C45.5439 3.81494 46.4782 4.91526 47.6306 4.91526Z" fill="#0C1A30" fill-opacity="0.05"/>
<path fill-rule="evenodd" clip-rule="evenodd" d="M47.6306 18.1867C48.783 18.1867 49.7173 17.0864 49.7173 15.7291C49.7173 14.3718 48.783 13.2715 47.6306 13.2715C46.4782 13.2715 45.5439 14.3718 45.5439 15.7291C45.5439 17.0864 46.4782 18.1867 47.6306 18.1867Z" fill="#0C1A30" fill-opacity="0.05"/>
<path fill-rule="evenodd" clip-rule="evenodd" d="M47.6306 31.9485C48.783 31.9485 49.7173 30.8481 49.7173 29.4908C49.7173 28.1335 48.783 27.0332 47.6306 27.0332C46.4782 27.0332 45.5439 28.1335 45.5439 29.4908C45.5439 30.8481 46.4782 31.9485 47.6306 31.9485Z" fill="#0C1A30" fill-opacity="0.05"/>
<path fill-rule="evenodd" clip-rule="evenodd" d="M47.6306 44.7297C48.783 44.7297 49.7173 43.6294 49.7173 42.2721C49.7173 40.9148 48.783 39.8145 47.6306 39.8145C46.4782 39.8145 45.5439 40.9148 45.5439 42.2721C45.5439 43.6294 46.4782 44.7297 47.6306 44.7297Z" fill="#0C1A30" fill-opacity="0.05"/>
<path fill-rule="evenodd" clip-rule="evenodd" d="M47.6306 57.9992C48.783 57.9992 49.7173 56.8989 49.7173 55.5416C49.7173 54.1843 48.783 53.084 47.6306 53.084C46.4782 53.084 45.5439 54.1843 45.5439 55.5416C45.5439 56.8989 46.4782 57.9992 47.6306 57.9992Z" fill="#0C1A30" fill-opacity="0.05"/>
</svg>
