<svg width="40" height="40" viewBox="0 0 40 40" fill="none" xmlns="http://www.w3.org/2000/svg">
<rect width="40" height="40" rx="10" fill="#FFF7CB"/>
<path fill-rule="evenodd" clip-rule="evenodd" d="M19.9997 14.834C19.1598 14.834 18.3544 15.1676 17.7605 15.7615C17.1666 16.3553 16.833 17.1608 16.833 18.0007C16.833 18.8405 17.1666 19.646 17.7605 20.2398C18.3544 20.8337 19.1598 21.1673 19.9997 21.1673C20.8395 21.1673 21.645 20.8337 22.2388 20.2398C22.8327 19.646 23.1663 18.8405 23.1663 18.0007C23.1663 17.1608 22.8327 16.3553 22.2388 15.7615C21.645 15.1676 20.8395 14.834 19.9997 14.834ZM17.833 18.0007C17.833 17.426 18.0613 16.8749 18.4676 16.4686C18.8739 16.0623 19.425 15.834 19.9997 15.834C20.5743 15.834 21.1254 16.0623 21.5317 16.4686C21.9381 16.8749 22.1663 17.426 22.1663 18.0007C22.1663 18.5753 21.9381 19.1264 21.5317 19.5327C21.1254 19.939 20.5743 20.1673 19.9997 20.1673C19.425 20.1673 18.8739 19.939 18.4676 19.5327C18.0613 19.1264 17.833 18.5753 17.833 18.0007Z" fill="#FF9C06"/>
<path fill-rule="evenodd" clip-rule="evenodd" d="M13.8188 17.8799C13.8037 17.8154 13.7758 17.7545 13.737 17.7008C13.6981 17.6472 13.6489 17.6017 13.5923 17.5672C13.5357 17.5327 13.4729 17.5098 13.4073 17.4998C13.3418 17.4899 13.275 17.493 13.2107 17.5091C13.1464 17.5252 13.0859 17.5539 13.0328 17.5935C12.9797 17.6332 12.9351 17.683 12.9014 17.7401C12.8677 17.7972 12.8457 17.8604 12.8367 17.926C12.8277 17.9917 12.8318 18.0585 12.8488 18.1226L13.1035 19.1412C13.3333 20.0605 13.7978 20.9044 14.4517 21.5902C15.1055 22.2761 15.9262 22.7804 16.8335 23.0539V26.0359C16.8335 26.6352 16.8335 27.1346 16.8868 27.5306C16.9428 27.9492 17.0668 28.3272 17.3708 28.6306C17.6741 28.9346 18.0521 29.0586 18.4708 29.1146C18.8675 29.1679 19.3668 29.1679 19.9655 29.1679H20.0348C20.6341 29.1679 21.1335 29.1679 21.5301 29.1146C21.9481 29.0586 22.3261 28.9346 22.6301 28.6306C22.9335 28.3272 23.0568 27.9492 23.1135 27.5306C23.1668 27.1346 23.1668 26.6352 23.1668 26.0359V23.2406C23.4943 23.3382 23.786 23.5297 24.0059 23.7913C24.2258 24.0529 24.3642 24.3732 24.4041 24.7126L24.8375 28.3926C24.8432 28.4593 24.8622 28.5242 24.8935 28.5835C24.9248 28.6427 24.9677 28.695 25.0196 28.7374C25.0715 28.7797 25.1314 28.8112 25.1957 28.83C25.26 28.8487 25.3275 28.8543 25.394 28.8465C25.4605 28.8387 25.5248 28.8176 25.583 28.7844C25.6413 28.7513 25.6922 28.7068 25.7329 28.6536C25.7736 28.6003 25.8032 28.5395 25.8199 28.4746C25.8366 28.4097 25.8401 28.3421 25.8301 28.2759L25.3968 24.5959C25.3181 23.9271 24.9966 23.3104 24.4934 22.8628C23.9902 22.4153 23.3402 22.168 22.6668 22.1679H17.3901C16.5904 21.9801 15.8578 21.5757 15.2727 20.9989C14.6877 20.4222 14.2727 19.6955 14.0735 18.8986L13.8188 17.8799ZM17.8335 26.0012V23.1679H22.1668V26.0012C22.1668 26.6439 22.1661 27.0759 22.1228 27.3979C22.0815 27.7052 22.0095 27.8372 21.9228 27.9239C21.8361 28.0106 21.7041 28.0819 21.3961 28.1239C21.0748 28.1666 20.6428 28.1679 20.0001 28.1679C19.3575 28.1679 18.9261 28.1666 18.6041 28.1232C18.2961 28.0819 18.1641 28.0106 18.0775 27.9232C17.9908 27.8366 17.9195 27.7052 17.8775 27.3979C17.8348 27.0759 17.8335 26.6439 17.8335 26.0012Z" fill="#FF9C06"/>
</svg>
