<svg width="344" height="62" viewBox="0 0 344 62" fill="none" xmlns="http://www.w3.org/2000/svg">
<rect x="0.5" y="0.5" width="343" height="61" rx="12.5" fill="white" stroke="#EFEFEF"/>
<g clip-path="url(#clip0_219_29946)">
<path fill-rule="evenodd" clip-rule="evenodd" d="M324.959 30.2934C325.133 30.4809 325.231 30.7351 325.231 31.0001C325.231 31.2651 325.133 31.5192 324.959 31.7067L321.451 35.4787C321.277 35.6662 321.04 35.7715 320.793 35.7715C320.547 35.7714 320.31 35.666 320.136 35.4784C319.961 35.2908 319.863 35.0364 319.863 34.7712C319.863 34.5059 319.961 34.2516 320.136 34.0641L322.986 31.0001L320.136 27.9361C319.966 27.7475 319.873 27.495 319.875 27.2328C319.877 26.9706 319.974 26.7197 320.147 26.5342C320.319 26.3487 320.552 26.2435 320.796 26.2411C321.04 26.2387 321.275 26.3393 321.451 26.5214L324.959 30.2927L324.959 30.2934Z" fill="#F4B421"/>
</g>
<defs>
<clipPath id="clip0_219_29946">
<rect width="16" height="14.8837" fill="white" transform="translate(315 39) rotate(-90)"/>
</clipPath>
</defs>
</svg>
