<svg width="130" height="8" viewBox="0 0 130 8" fill="none" xmlns="http://www.w3.org/2000/svg">
<path d="M3.18823 7.196C4.94175 7.196 6.37646 5.75779 6.37646 3.99998C6.37646 2.24217 4.94175 0.803955 3.18823 0.803955C1.4347 0.803955 0 2.24217 0 3.99998C0 5.75779 1.4347 7.196 3.18823 7.196Z" fill="#0C1A30"/>
<path d="M16.9242 7.196C18.6777 7.196 20.1124 5.75779 20.1124 3.99998C20.1124 2.24217 18.6777 0.803955 16.9242 0.803955C15.1707 0.803955 13.7359 2.24217 13.7359 3.99998C13.7359 5.75779 15.1707 7.196 16.9242 7.196Z" fill="#0C1A30"/>
<path d="M30.6601 7.196C32.4137 7.196 33.8484 5.75779 33.8484 3.99998C33.8484 2.24217 32.4137 0.803955 30.6601 0.803955C28.9066 0.803955 27.4719 2.24217 27.4719 3.99998C27.4719 5.75779 28.9066 7.196 30.6601 7.196Z" fill="#0C1A30"/>
<path d="M44.3961 7.196C46.1496 7.196 47.5843 5.75779 47.5843 3.99998C47.5843 2.24217 46.1496 0.803955 44.3961 0.803955C42.6426 0.803955 41.2078 2.24217 41.2078 3.99998C41.2078 5.75779 42.6426 7.196 44.3961 7.196Z" fill="#0C1A30"/>
<path d="M58.132 7.196C59.8856 7.196 61.3203 5.75779 61.3203 3.99998C61.3203 2.24217 59.8856 0.803955 58.132 0.803955C56.3785 0.803955 54.9438 2.24217 54.9438 3.99998C54.9438 5.75779 56.3785 7.196 58.132 7.196Z" fill="#0C1A30"/>
<path d="M71.868 7.196C73.6215 7.196 75.0562 5.75779 75.0562 3.99998C75.0562 2.24217 73.6215 0.803955 71.868 0.803955C70.1144 0.803955 68.6797 2.24217 68.6797 3.99998C68.6797 5.75779 70.1144 7.196 71.868 7.196Z" fill="#0C1A30"/>
<path d="M85.6039 7.196C87.3575 7.196 88.7922 5.75779 88.7922 3.99998C88.7922 2.24217 87.3575 0.803955 85.6039 0.803955C83.8504 0.803955 82.4157 2.24217 82.4157 3.99998C82.4157 5.75779 83.8504 7.196 85.6039 7.196Z" fill="#0C1A30"/>
<path d="M99.3399 7.196C101.093 7.196 102.528 5.75779 102.528 3.99998C102.528 2.24217 101.093 0.803955 99.3399 0.803955C97.5863 0.803955 96.1516 2.24217 96.1516 3.99998C96.1516 5.75779 97.5863 7.196 99.3399 7.196Z" fill="#0C1A30"/>
<path d="M113.076 7.196C114.829 7.196 116.264 5.75779 116.264 3.99998C116.264 2.24217 114.829 0.803955 113.076 0.803955C111.322 0.803955 109.888 2.24217 109.888 3.99998C109.888 5.75779 111.322 7.196 113.076 7.196Z" fill="#0C1A30"/>
<path d="M126.812 7.196C128.565 7.196 130 5.75779 130 3.99998C130 2.24217 128.565 0.803955 126.812 0.803955C125.058 0.803955 123.624 2.24217 123.624 3.99998C123.624 5.75779 125.058 7.196 126.812 7.196Z" fill="#0C1A30"/>
</svg>
