<svg width="20" height="20" viewBox="0 0 20 20" fill="none" xmlns="http://www.w3.org/2000/svg">
<g clip-path="url(#clip0_367_13069)">
<path fill-rule="evenodd" clip-rule="evenodd" d="M10 2.2124C15.16 2.2124 18.1 5.74407 19.3925 7.84907C19.7921 8.49532 20.0037 9.2401 20.0037 9.9999C20.0037 10.7597 19.7921 11.5045 19.3925 12.1507C18.1 14.2557 15.16 17.7874 10 17.7874C4.84004 17.7874 1.90004 14.2557 0.607543 12.1507C0.207983 11.5045 -0.00366211 10.7597 -0.00366211 9.9999C-0.00366211 9.2401 0.207983 8.49532 0.607543 7.84907C1.90004 5.74407 4.84004 2.2124 10 2.2124ZM10 16.1207C14.3492 16.1207 16.8617 13.0832 17.9717 11.2782C18.2091 10.8941 18.3348 10.4515 18.3348 9.9999C18.3348 9.54834 18.2091 9.1057 17.9717 8.72157C16.8617 6.91324 14.3492 3.87907 10 3.87907C5.65088 3.87907 3.13838 6.91657 2.02838 8.72157C1.79099 9.1057 1.66525 9.54834 1.66525 9.9999C1.66525 10.4515 1.79099 10.8941 2.02838 11.2782C3.13838 13.0832 5.65088 16.1207 10 16.1207ZM7.68513 6.53545C8.37033 6.07761 9.17591 5.83324 10 5.83324C11.1047 5.83456 12.1637 6.27398 12.9448 7.05509C13.7259 7.83621 14.1653 8.89525 14.1667 9.99991C14.1667 10.824 13.9223 11.6296 13.4645 12.3148C13.0066 13 12.3559 13.534 11.5945 13.8494C10.8332 14.1648 9.99538 14.2473 9.18713 14.0865C8.37887 13.9257 7.63644 13.5289 7.05372 12.9462C6.471 12.3635 6.07417 11.621 5.9134 10.8128C5.75262 10.0045 5.83514 9.16675 6.1505 8.40539C6.46587 7.64404 6.99992 6.99329 7.68513 6.53545ZM8.61108 12.0786C9.0222 12.3533 9.50555 12.4999 10 12.4999C10.663 12.4999 11.2989 12.2365 11.7678 11.7677C12.2366 11.2988 12.5 10.6629 12.5 9.99991C12.5 9.50546 12.3534 9.02211 12.0787 8.61098C11.804 8.19986 11.4135 7.87943 10.9567 7.69021C10.4999 7.50099 9.99723 7.45148 9.51228 7.54795C9.02732 7.64441 8.58187 7.88251 8.23223 8.23214C7.8826 8.58177 7.6445 9.02723 7.54804 9.51218C7.45158 9.99714 7.50108 10.4998 7.6903 10.9566C7.87952 11.4134 8.19995 11.8039 8.61108 12.0786Z" fill="#838589"/>
</g>
<defs>
<clipPath id="clip0_367_13069">
<rect width="20" height="20" fill="white"/>
</clipPath>
</defs>
</svg>
