<svg width="20" height="20" viewBox="0 0 20 20" fill="none" xmlns="http://www.w3.org/2000/svg">
<path d="M10.0003 18.3337C14.6028 18.3337 18.3337 14.6028 18.3337 10.0003C18.3337 5.39783 14.6028 1.66699 10.0003 1.66699C5.39783 1.66699 1.66699 5.39783 1.66699 10.0003C1.66699 14.6028 5.39783 18.3337 10.0003 18.3337Z" stroke="#9F9F9F" stroke-width="1.33333"/>
<path d="M2.5 12.9111C3.59667 13.3507 4.38625 13.3507 4.86833 12.9111C5.59167 12.2511 4.9675 10.2495 5.98083 9.69738C6.99333 9.1453 8.53708 11.5924 9.97958 10.7874C11.4221 9.98197 9.84375 7.83447 10.8446 6.96405C11.8458 6.09322 13.1475 7.0753 13.375 5.61947C13.6025 4.16405 12.3133 4.7953 12.0658 3.41947C11.9013 2.5028 11.9013 2.02072 12.0658 1.97363M12.0917 18.0628C11.3113 17.2636 11.03 16.5211 11.2488 15.8345C11.5767 14.8045 12.1179 14.8653 12.3538 14.2286C12.5896 13.592 11.9233 12.6849 13.4017 11.9099C14.3875 11.3932 15.7429 11.9916 17.4679 13.7061" stroke="#9F9F9F" stroke-width="1.33333" stroke-linecap="round"/>
</svg>
