<svg width="24" height="20" viewBox="0 0 24 20" fill="none" xmlns="http://www.w3.org/2000/svg">
<path fill-rule="evenodd" clip-rule="evenodd" d="M15.7745 18.2627C15.8668 18.3109 15.9699 18.3354 16.0731 18.3346C16.1763 18.3338 16.2787 18.3084 16.3718 18.2594L19.345 16.67C20.1882 16.2206 20.8484 15.718 21.3635 15.1329C22.4835 13.8581 23.0951 12.2312 23.0842 10.5535L23.049 5.01962C23.0456 4.38223 22.627 3.81348 22.0079 3.60673L16.4767 1.75094C16.1436 1.63817 15.7787 1.64062 15.4515 1.75666L9.94126 3.67864C9.32547 3.89356 8.91439 4.4664 8.91775 5.10461L8.95298 10.6344C8.96389 12.3145 9.59645 13.9341 10.7349 15.1958C11.2551 15.7728 11.9212 16.268 12.7736 16.7101L15.7745 18.2627ZM14.9877 11.7602C15.1118 11.8795 15.2729 11.9383 15.434 11.9367C15.5951 11.9359 15.7553 11.8754 15.8778 11.7545L19.127 8.55114C19.3712 8.31008 19.3687 7.92274 19.122 7.68494C18.8745 7.44715 18.476 7.44878 18.2319 7.68985L15.4248 10.4568L14.2754 9.35197C14.0279 9.11417 13.6302 9.11663 13.3853 9.35769C13.1411 9.59876 13.1437 9.98609 13.3911 10.2239L14.9877 11.7602Z" fill="#189A3C"/>
</svg>
