<svg width="36" height="36" viewBox="0 0 36 36" fill="none" xmlns="http://www.w3.org/2000/svg">
<g clip-path="url(#clip0_219_30224)">
<path d="M0.766768 17.7846C0.765931 20.8093 1.55626 23.7627 3.05905 26.3658L0.623047 35.2601L9.72519 32.8735C12.2427 34.244 15.0634 34.9621 17.9298 34.9623H17.9374C27.3999 34.9623 35.1027 27.2623 35.1067 17.7981C35.1085 13.212 33.3242 8.89954 30.0822 5.65508C26.8408 2.41089 22.5299 0.623309 17.9367 0.621216C8.473 0.621216 0.770814 8.32075 0.766907 17.7846" fill="url(#paint0_linear_219_30224)"/>
<path d="M0.153209 17.779C0.152232 20.9125 0.970883 23.9715 2.52725 26.6679L0.00390625 35.881L9.43242 33.4088C12.0303 34.8253 14.9552 35.572 17.9315 35.5732H17.9392C27.7412 35.5732 35.7206 27.5962 35.7248 17.7932C35.7265 13.0423 33.8779 8.57484 30.5202 5.21414C27.162 1.85386 22.6969 0.00195349 17.9392 0C8.13544 0 0.157116 7.97581 0.153209 17.779ZM5.76809 26.2035L5.41605 25.6447C3.93614 23.2916 3.15502 20.5723 3.15614 17.7801C3.15935 9.63195 9.7906 3.00279 17.9447 3.00279C21.8936 3.00447 25.6046 4.54381 28.3959 7.33674C31.187 10.13 32.7229 13.843 32.7219 17.7921C32.7183 25.9402 26.0869 32.5702 17.9392 32.5702H17.9333C15.2803 32.5688 12.6784 31.8564 10.4093 30.51L9.8693 30.1898L4.27423 31.6567L5.76809 26.2034V26.2035Z" fill="url(#paint1_linear_219_30224)"/>
<path d="M13.4944 10.3466C13.1615 9.60661 12.8111 9.59168 12.4945 9.5787C12.2353 9.56754 11.9389 9.56837 11.6428 9.56837C11.3464 9.56837 10.8649 9.67986 10.4579 10.1243C10.0504 10.5691 8.90234 11.6441 8.90234 13.8305C8.90234 16.017 10.4949 18.13 10.7169 18.4267C10.9391 18.723 13.7912 23.3533 18.3082 25.1346C22.0623 26.6149 22.8263 26.3205 23.641 26.2463C24.4559 26.1723 26.2704 25.1716 26.6406 24.1339C27.011 23.0963 27.011 22.2069 26.9 22.021C26.7889 21.8359 26.4925 21.7247 26.0481 21.5025C25.6035 21.2802 23.4187 20.2051 23.0114 20.0568C22.604 19.9086 22.3077 19.8347 22.0114 20.2796C21.715 20.7239 20.864 21.7247 20.6046 22.021C20.3455 22.3181 20.0861 22.3551 19.6418 22.1328C19.1971 21.9098 17.7659 21.4411 16.0679 19.9273C14.7468 18.7494 13.8549 17.2947 13.5956 16.8497C13.3363 16.4054 13.5678 16.1646 13.7907 15.9432C13.9903 15.744 14.2352 15.4242 14.4576 15.1648C14.6792 14.9053 14.7532 14.7201 14.9014 14.4238C15.0497 14.1271 14.9755 13.8676 14.8645 13.6453C14.7532 13.423 13.8896 11.2252 13.4944 10.3466Z" fill="white"/>
</g>
<defs>
<linearGradient id="paint0_linear_219_30224" x1="1724.81" y1="3464.51" x2="1724.81" y2="0.621216" gradientUnits="userSpaceOnUse">
<stop stop-color="#1FAF38"/>
<stop offset="1" stop-color="#60D669"/>
</linearGradient>
<linearGradient id="paint1_linear_219_30224" x1="1786.05" y1="3588.1" x2="1786.05" y2="0" gradientUnits="userSpaceOnUse">
<stop stop-color="#F9F9F9"/>
<stop offset="1" stop-color="white"/>
</linearGradient>
<clipPath id="clip0_219_30224">
<rect width="35.73" height="36" fill="white"/>
</clipPath>
</defs>
</svg>
