<svg width="16" height="16" viewBox="0 0 16 16" fill="none" xmlns="http://www.w3.org/2000/svg">
<path d="M12.6667 2C13.0333 2 13.3473 2.13066 13.6087 2.392C13.87 2.65333 14.0004 2.96711 14 3.33333L14 12.6667C14 13.0333 13.8693 13.3473 13.608 13.6087C13.3467 13.87 13.0329 14.0004 12.6667 14L8 14L8 12.6667L12.6667 12.6667L12.6667 3.33333L8 3.33333L8 2L12.6667 2ZM5.33333 4.66666L6.25 5.63333L4.55 7.33333L10 7.33333L10 8.66666L4.55 8.66666L6.25 10.3667L5.33333 11.3333L2 8L5.33333 4.66666Z" fill="#F4B421"/>
</svg>
