<svg width="16" height="16" viewBox="0 0 16 16" fill="none" xmlns="http://www.w3.org/2000/svg">
<path d="M6.66667 6.5L8 5.83333L9.33333 6.5V3.33333H6.66667V6.5ZM4.66667 11.3333V10H8V11.3333H4.66667ZM3.33333 14C2.96667 14 2.65267 13.8693 2.39133 13.608C2.13 13.3467 1.99956 13.0329 2 12.6667V3.33333C2 2.96667 2.13067 2.65267 2.392 2.39133C2.65333 2.13 2.96711 1.99956 3.33333 2H12.6667C13.0333 2 13.3473 2.13067 13.6087 2.392C13.87 2.65333 14.0004 2.96711 14 3.33333V12.6667C14 13.0333 13.8693 13.3473 13.608 13.6087C13.3467 13.87 13.0329 14.0004 12.6667 14H3.33333ZM3.33333 12.6667H12.6667V3.33333H10.6667V8.66667L8 7.33333L5.33333 8.66667V3.33333H3.33333V12.6667Z" fill="#FF9C06"/>
</svg>
