<svg width="16" height="16" viewBox="0 0 16 16" fill="none" xmlns="http://www.w3.org/2000/svg">
<path d="M6.66634 8.66602C6.43301 9.05935 6.23967 9.49268 6.12634 9.95268C4.33301 10.106 2.59967 10.946 2.59967 11.3327V12.066H6.13301C6.24634 12.5193 6.43301 12.946 6.66634 13.3327H1.33301V11.3327C1.33301 9.55935 4.88634 8.66602 6.66634 8.66602ZM6.66634 2.66602C7.37359 2.66602 8.05186 2.94697 8.55196 3.44706C9.05206 3.94716 9.33301 4.62544 9.33301 5.33268C9.33301 5.93935 9.12634 6.49935 8.78634 6.95268C8.21301 7.16602 7.69967 7.50602 7.27301 7.93268L6.66634 7.99935C5.9591 7.99935 5.28082 7.7184 4.78072 7.2183C4.28063 6.7182 3.99967 6.03993 3.99967 5.33268C3.99967 4.62544 4.28063 3.94716 4.78072 3.44706C5.28082 2.94697 5.9591 2.66602 6.66634 2.66602ZM6.66634 3.93268C6.29504 3.93268 5.93894 4.08018 5.67639 4.34273C5.41384 4.60528 5.26634 4.96138 5.26634 5.33268C5.26634 5.70399 5.41384 6.06008 5.67639 6.32263C5.93894 6.58518 6.29504 6.73268 6.66634 6.73268C7.03764 6.73268 7.39374 6.58518 7.65629 6.32263C7.91884 6.06008 8.06634 5.70399 8.06634 5.33268C8.06634 4.96138 7.91884 4.60528 7.65629 4.34273C7.39374 4.08018 7.03764 3.93268 6.66634 3.93268ZM10.333 7.99935C11.9997 7.99935 13.333 9.33268 13.333 10.9993C13.333 11.586 13.1663 12.1393 12.873 12.5993L14.9263 14.666L13.9997 15.5927L11.9197 13.546C11.4597 13.8327 10.913 13.9993 10.333 13.9993C8.66634 13.9993 7.33301 12.666 7.33301 10.9993C7.33301 9.33268 8.66634 7.99935 10.333 7.99935ZM10.333 9.33268C9.89098 9.33268 9.46706 9.50828 9.1545 9.82084C8.84194 10.1334 8.66634 10.5573 8.66634 10.9993C8.66634 11.4414 8.84194 11.8653 9.1545 12.1779C9.46706 12.4904 9.89098 12.666 10.333 12.666C10.775 12.666 11.199 12.4904 11.5115 12.1779C11.8241 11.8653 11.9997 11.4414 11.9997 10.9993C11.9997 10.5573 11.8241 10.1334 11.5115 9.82084C11.199 9.50828 10.775 9.33268 10.333 9.33268Z" fill="#FF9C06"/>
</svg>
