<svg width="20" height="20" viewBox="0 0 20 20" fill="none" xmlns="http://www.w3.org/2000/svg">
<path d="M8.33366 10.833C8.04199 11.3247 7.80033 11.8663 7.65866 12.4413C5.41699 12.633 3.25033 13.683 3.25033 14.1663V15.083H7.66699C7.80866 15.6497 8.04199 16.183 8.33366 16.6663H1.66699V14.1663C1.66699 11.9497 6.10866 10.833 8.33366 10.833ZM8.33366 3.33301C9.21771 3.33301 10.0656 3.6842 10.6907 4.30932C11.3158 4.93444 11.667 5.78229 11.667 6.66634C11.667 7.42467 11.4087 8.12467 10.9837 8.69134C10.267 8.95801 9.62533 9.38301 9.09199 9.91634L8.33366 9.99967C7.4496 9.99967 6.60176 9.64849 5.97664 9.02336C5.35152 8.39824 5.00033 7.5504 5.00033 6.66634C5.00033 5.78229 5.35152 4.93444 5.97664 4.30932C6.60176 3.6842 7.4496 3.33301 8.33366 3.33301ZM8.33366 4.91634C7.86953 4.91634 7.42441 5.10072 7.09622 5.4289C6.76803 5.75709 6.58366 6.20221 6.58366 6.66634C6.58366 7.13047 6.76803 7.57559 7.09622 7.90378C7.42441 8.23197 7.86953 8.41634 8.33366 8.41634C8.79779 8.41634 9.24291 8.23197 9.5711 7.90378C9.89929 7.57559 10.0837 7.13047 10.0837 6.66634C10.0837 6.20221 9.89929 5.75709 9.5711 5.4289C9.24291 5.10072 8.79779 4.91634 8.33366 4.91634ZM12.917 9.99967C15.0003 9.99967 16.667 11.6663 16.667 13.7497C16.667 14.483 16.4587 15.1747 16.092 15.7497L18.6587 18.333L17.5003 19.4913L14.9003 16.933C14.3253 17.2913 13.642 17.4997 12.917 17.4997C10.8337 17.4997 9.16699 15.833 9.16699 13.7497C9.16699 11.6663 10.8337 9.99967 12.917 9.99967ZM12.917 11.6663C12.3645 11.6663 11.8346 11.8858 11.4439 12.2765C11.0532 12.6672 10.8337 13.1971 10.8337 13.7497C10.8337 14.3022 11.0532 14.8321 11.4439 15.2228C11.8346 15.6135 12.3645 15.833 12.917 15.833C13.4695 15.833 13.9994 15.6135 14.3901 15.2228C14.7808 14.8321 15.0003 14.3022 15.0003 13.7497C15.0003 13.1971 14.7808 12.6672 14.3901 12.2765C13.9994 11.8858 13.4695 11.6663 12.917 11.6663Z" fill="#9F9F9F"/>
</svg>
