<svg width="15" height="16" viewBox="0 0 15 16" fill="none" xmlns="http://www.w3.org/2000/svg">
<g clip-path="url(#clip0_219_29962)">
<path fill-rule="evenodd" clip-rule="evenodd" d="M9.95886 7.2934C10.1331 7.4809 10.2309 7.73507 10.2309 8.00007C10.2309 8.26507 10.1331 8.51923 9.95886 8.70673L6.45127 12.4787C6.27676 12.6662 6.04011 12.7715 5.79337 12.7715C5.54664 12.7714 5.31003 12.666 5.13561 12.4784C4.96118 12.2908 4.86322 12.0364 4.86328 11.7712C4.86334 11.5059 4.96141 11.2516 5.13592 11.0641L7.98615 8.00007L5.13592 4.93607C4.96638 4.74755 4.87251 4.49499 4.87451 4.2328C4.87652 3.9706 4.97424 3.71973 5.14663 3.53424C5.31902 3.34874 5.55229 3.24345 5.7962 3.24105C6.0401 3.23865 6.27512 3.33933 6.45065 3.5214L9.95948 7.29273L9.95886 7.2934Z" fill="#F4B421"/>
</g>
<defs>
<clipPath id="clip0_219_29962">
<rect width="16" height="14.8837" fill="white" transform="translate(0 16) rotate(-90)"/>
</clipPath>
</defs>
</svg>
