<svg width="22" height="20" viewBox="0 0 22 20" fill="none" xmlns="http://www.w3.org/2000/svg">
<g clip-path="url(#clip0_219_30693)">
<path d="M3.9838 9.41196C4.14003 9.56823 4.22779 9.78016 4.22779 10.0011C4.22779 10.2221 4.14003 10.434 3.9838 10.5903L0.162967 14.412C0.0111685 14.5691 -0.0728269 14.7796 -0.0709281 14.9981C-0.0690293 15.2166 0.0186119 15.4256 0.173119 15.5801C0.327626 15.7346 0.536635 15.8223 0.755133 15.8242C0.97363 15.8261 1.18413 15.7421 1.3413 15.5903L5.15963 11.7686C5.62831 11.2998 5.8916 10.664 5.8916 10.0011C5.8916 9.33822 5.62831 8.70244 5.15963 8.23363L1.33797 4.41196C1.1808 4.26016 0.970297 4.17616 0.7518 4.17806C0.533302 4.17996 0.324292 4.2676 0.169785 4.42211C0.0152783 4.57662 -0.0723624 4.78563 -0.0742612 5.00412C-0.07616 5.22262 0.00783539 5.43312 0.159634 5.59029L3.9838 9.41196Z" fill="#838589"/>
</g>
<defs>
<clipPath id="clip0_219_30693">
<rect width="21.1077" height="20" fill="white" transform="translate(0.892578)"/>
</clipPath>
</defs>
</svg>
