<svg width="24" height="24" viewBox="0 0 24 24" fill="none" xmlns="http://www.w3.org/2000/svg">
<path d="M10.5999 12.7064C10.4124 12.5189 10.3071 12.2646 10.3071 11.9994C10.3071 11.7343 10.4124 11.48 10.5999 11.2924L15.1849 6.70643C15.3671 6.51783 15.4679 6.26523 15.4656 6.00303C15.4633 5.74083 15.3581 5.49002 15.1727 5.30461C14.9873 5.1192 14.7365 5.01403 14.4743 5.01176C14.2121 5.00948 13.9595 5.11027 13.7709 5.29243L9.18891 9.87843C8.62649 10.441 8.31055 11.2039 8.31055 11.9994C8.31055 12.7949 8.62649 13.5578 9.18891 14.1204L13.7749 18.7064C13.9635 18.8886 14.2161 18.9894 14.4783 18.9871C14.7405 18.9848 14.9913 18.8797 15.1767 18.6942C15.3621 18.5088 15.4673 18.258 15.4696 17.9958C15.4719 17.7336 15.3711 17.481 15.1889 17.2924L10.5999 12.7064Z" fill="#161616"/>
</svg>
