<svg width="20" height="20" viewBox="0 0 20 20" fill="none" xmlns="http://www.w3.org/2000/svg">
<path d="M10.4987 13.3333L7.83199 6.66667H6.16532L4.49866 10.8333V10.835L3.49949 13.3333H5.29449L5.62782 12.5H8.36949L8.70282 13.3333H10.4987ZM6.29366 10.8333L6.99949 9.07083L7.70366 10.8333H6.29366ZM14.167 6.66667H15.8337V13.3333H13.3337C12.6706 13.3333 12.0347 13.0699 11.5659 12.6011C11.097 12.1323 10.8337 11.4964 10.8337 10.8333C10.8337 10.1703 11.097 9.53441 11.5659 9.06557C12.0347 8.59672 12.6706 8.33333 13.3337 8.33333H14.167V6.66667ZM13.3337 10C13.1126 10 12.9007 10.0878 12.7444 10.2441C12.5881 10.4004 12.5003 10.6123 12.5003 10.8333C12.5003 11.0543 12.5881 11.2663 12.7444 11.4226C12.9007 11.5789 13.1126 11.6667 13.3337 11.6667H14.167V10H13.3337ZM17.5003 2.5H2.50033C2.27931 2.5 2.06735 2.5878 1.91107 2.74408C1.75479 2.90036 1.66699 3.11232 1.66699 3.33333V16.6667C1.66699 16.8877 1.75479 17.0996 1.91107 17.2559C2.06735 17.4122 2.27931 17.5 2.50033 17.5H17.5003C17.7213 17.5 17.9333 17.4122 18.0896 17.2559C18.2459 17.0996 18.3337 16.8877 18.3337 16.6667V3.33333C18.3337 3.11232 18.2459 2.90036 18.0896 2.74408C17.9333 2.5878 17.7213 2.5 17.5003 2.5ZM3.33366 15.8333V4.16667H16.667V15.8333H3.33366Z" fill="white"/>
</svg>
