<svg width="37" height="36" viewBox="0 0 37 36" fill="none" xmlns="http://www.w3.org/2000/svg">
<g clip-path="url(#clip0_219_30219)">
<path d="M28.293 0H9.16797C4.50807 0 0.730469 3.7776 0.730469 8.4375V27.5625C0.730469 32.2224 4.50807 36 9.16797 36H28.293C32.9529 36 36.7305 32.2224 36.7305 27.5625V8.4375C36.7305 3.7776 32.9529 0 28.293 0Z" fill="white"/>
<path d="M28.293 0H9.16797C4.50807 0 0.730469 3.7776 0.730469 8.4375V27.5625C0.730469 32.2224 4.50807 36 9.16797 36H28.293C32.9529 36 36.7305 32.2224 36.7305 27.5625V8.4375C36.7305 3.7776 32.9529 0 28.293 0Z" fill="#1D9BF0"/>
<path d="M28.7953 12.8547C28.8108 13.0778 28.8108 13.301 28.8108 13.5263C28.8108 20.3884 23.5868 28.3025 14.0346 28.3025V28.2982C11.2127 28.3023 8.44924 27.4941 6.07422 25.9702C6.48456 26.0196 6.89688 26.0442 7.31031 26.0452C9.64914 26.047 11.9207 25.2625 13.7599 23.8178C12.6763 23.7973 11.6261 23.4387 10.7562 22.7921C9.88638 22.1455 9.24032 21.2432 8.90837 20.2115C9.68642 20.3615 10.4885 20.3309 11.2529 20.122C8.83019 19.6325 7.08714 17.5039 7.08714 15.0317V14.9659C7.80938 15.3681 8.61768 15.5911 9.44402 15.6158C7.16223 14.0908 6.45883 11.0551 7.83667 8.68162C9.14045 10.286 10.7671 11.5982 12.6111 12.5329C14.4551 13.4677 16.475 14.004 18.5398 14.1072C18.3339 13.221 18.3643 12.2964 18.628 11.4256C18.8916 10.5549 19.3792 9.76867 20.0421 9.14554C22.1337 7.17932 25.4234 7.28015 27.3896 9.37068C28.5526 9.14107 29.6678 8.71472 30.6874 8.10998C30.2997 9.31241 29.4884 10.3331 28.4045 10.9821C29.434 10.8608 30.4393 10.5852 31.3867 10.1646C30.6898 11.2084 29.8122 12.1192 28.7953 12.8547Z" fill="white"/>
</g>
<defs>
<clipPath id="clip0_219_30219">
<rect width="36" height="36" fill="white" transform="translate(0.730469)"/>
</clipPath>
</defs>
</svg>
