<svg width="375" height="55" viewBox="0 0 375 55" fill="none" xmlns="http://www.w3.org/2000/svg">
<rect width="375" height="55" fill="white"/>
<path d="M30.5999 28.207C30.4124 28.0195 30.3071 27.7651 30.3071 27.5C30.3071 27.2348 30.4124 26.9805 30.5999 26.793L35.1849 22.207C35.3671 22.0184 35.4679 21.7658 35.4656 21.5036C35.4633 21.2414 35.3581 20.9906 35.1727 20.8052C34.9873 20.6198 34.7365 20.5146 34.4743 20.5123C34.2121 20.51 33.9595 20.6108 33.7709 20.793L29.1889 25.379C28.6265 25.9416 28.3105 26.7045 28.3105 27.5C28.3105 28.2955 28.6265 29.0584 29.1889 29.621L33.7749 34.207C33.9635 34.3891 34.2161 34.4899 34.4783 34.4877C34.7405 34.4854 34.9913 34.3802 35.1767 34.1948C35.3621 34.0094 35.4673 33.7586 35.4696 33.4964C35.4719 33.2342 35.3711 32.9816 35.1889 32.793L30.5999 28.207Z" fill="#161616"/>
</svg>
