<svg width="383" height="63" viewBox="0 0 383 63" fill="none" xmlns="http://www.w3.org/2000/svg">
<g filter="url(#filter0_d_367_13899)">
<mask id="path-1-outside-1_367_13899" maskUnits="userSpaceOnUse" x="3" y="2" width="377" height="57" fill="black">
<rect fill="white" x="3" y="2" width="377" height="57"/>
<path d="M4 3H379V58H4V3Z"/>
</mask>
<path d="M4 3H379V58H4V3Z" fill="white"/>
<path d="M4 3V2H3V3H4ZM379 3H380V2H379V3ZM379 58V59H380V58H379ZM4 58H3V59H4V58ZM4 4H379V2H4V4ZM378 3V58H380V3H378ZM379 57H4V59H379V57ZM5 58V3H3V58H5Z" fill="#F2F2F2" mask="url(#path-1-outside-1_367_13899)"/>
<g clip-path="url(#clip0_367_13899)">
<path d="M317.756 40.5775L312.782 35.6033C314.137 33.9455 314.804 31.8301 314.644 29.6946C314.483 27.5592 313.508 25.5671 311.92 24.1304C310.332 22.6938 308.252 21.9224 306.112 21.9759C303.971 22.0295 301.933 22.9038 300.418 24.418C298.904 25.9323 298.03 27.9706 297.976 30.1114C297.923 32.2522 298.694 34.3316 300.131 35.9197C301.567 37.5077 303.559 38.4828 305.695 38.6432C307.83 38.8037 309.946 38.1372 311.604 36.7817L316.578 41.7558C316.735 41.9076 316.945 41.9916 317.164 41.9897C317.382 41.9878 317.591 41.9002 317.746 41.7457C317.9 41.5912 317.988 41.3822 317.99 41.1637C317.992 40.9452 317.908 40.7347 317.756 40.5775ZM306.334 37C305.015 37 303.726 36.609 302.63 35.8765C301.534 35.1439 300.679 34.1027 300.174 32.8846C299.67 31.6664 299.538 30.3259 299.795 29.0327C300.052 27.7395 300.687 26.5516 301.62 25.6193C302.552 24.6869 303.74 24.052 305.033 23.7948C306.326 23.5375 307.667 23.6696 308.885 24.1741C310.103 24.6787 311.144 25.5332 311.877 26.6295C312.609 27.7259 313 29.0148 313 30.3333C312.998 32.1008 312.295 33.7954 311.045 35.0452C309.796 36.295 308.101 36.998 306.334 37Z" fill="#0C1A30"/>
</g>
<g clip-path="url(#clip1_367_13899)">
<path fill-rule="evenodd" clip-rule="evenodd" d="M357.5 33.35C357.65 34.25 357.8 35 358.1 35.9L359 38.45L358.25 39.5H353C353 40.25 352.7 41 352.1 41.6C351.5 42.2 350.75 42.5 350 42.5C349.25 42.5 348.35 42.2 347.9 41.6C347.3 41 347 40.25 347 39.5H341.75L341 38.45L341.9 35.9C342.2 34.7 342.5 33.5 342.5 32.3V29C342.5 27.95 342.65 26.9 343.1 26C343.55 24.95 344.15 24.2 344.9 23.45C345.65 22.7 346.55 22.25 347.6 21.95C348.35 21.65 349.25 21.5 350 21.5C349.7 21.95 349.4 22.55 349.1 23.15C348.8 23.15 348.5 23.15 348.05 23.45C347.3 23.6 346.55 24.05 345.95 24.65C345.35 25.1 344.75 25.85 344.45 26.6C344.15 27.35 344 28.1 344 29V32.3C344 33.65 343.7 35 343.4 36.35L342.8 38H357.2L356.6 36.35C356.337 35.561 356.189 34.655 356.056 33.839L356 33.5C356.6 33.5 357.05 33.5 357.5 33.35ZM350 41C350.3 41 350.75 40.85 351.05 40.55C351.35 40.25 351.5 39.95 351.5 39.5H348.5C348.5 39.95 348.65 40.25 348.95 40.55C349.25 40.85 349.7 41 350 41ZM360.5 26C360.5 27.1935 360.026 28.3381 359.182 29.182C358.338 30.0259 357.193 30.5 356 30.5C354.807 30.5 353.662 30.0259 352.818 29.182C351.974 28.3381 351.5 27.1935 351.5 26C351.5 24.8065 351.974 23.6619 352.818 22.818C353.662 21.9741 354.807 21.5 356 21.5C357.193 21.5 358.338 21.9741 359.182 22.818C360.026 23.6619 360.5 24.8065 360.5 26Z" fill="#0C1A30"/>
<circle cx="356" cy="26" r="6" stroke="#F9FAFB" stroke-width="2"/>
</g>
<g clip-path="url(#clip2_367_13899)">
<path d="M44.1667 38.75C44.4746 38.7503 44.7709 38.8683 44.9948 39.0797C45.2188 39.2911 45.3535 39.5801 45.3716 39.8875C45.3896 40.195 45.2896 40.4977 45.0919 40.7339C44.8943 40.9701 44.6139 41.1218 44.308 41.1582L44.1667 41.1667H24.8333C24.5254 41.1663 24.2291 41.0484 24.0052 40.837C23.7812 40.6256 23.6465 40.3366 23.6284 40.0292C23.6104 39.7217 23.7104 39.419 23.9081 39.1828C24.1057 38.9466 24.3861 38.7948 24.692 38.7585L24.8333 38.75H44.1667ZM44.1667 30.2917C44.4871 30.2917 44.7945 30.419 45.0211 30.6456C45.2477 30.8722 45.375 31.1795 45.375 31.5C45.375 31.8205 45.2477 32.1278 45.0211 32.3544C44.7945 32.581 44.4871 32.7083 44.1667 32.7083H24.8333C24.5129 32.7083 24.2055 32.581 23.9789 32.3544C23.7523 32.1278 23.625 31.8205 23.625 31.5C23.625 31.1795 23.7523 30.8722 23.9789 30.6456C24.2055 30.419 24.5129 30.2917 24.8333 30.2917H44.1667ZM44.1667 21.8333C44.4871 21.8333 44.7945 21.9606 45.0211 22.1872C45.2477 22.4139 45.375 22.7212 45.375 23.0417C45.375 23.3621 45.2477 23.6695 45.0211 23.8961C44.7945 24.1227 44.4871 24.25 44.1667 24.25H24.8333C24.5129 24.25 24.2055 24.1227 23.9789 23.8961C23.7523 23.6695 23.625 23.3621 23.625 23.0417C23.625 22.7212 23.7523 22.4139 23.9789 22.1872C24.2055 21.9606 24.5129 21.8333 24.8333 21.8333H44.1667Z" fill="#0C1A30"/>
</g>
</g>
<defs>
<filter id="filter0_d_367_13899" x="0" y="0" width="383" height="63" filterUnits="userSpaceOnUse" color-interpolation-filters="sRGB">
<feFlood flood-opacity="0" result="BackgroundImageFix"/>
<feColorMatrix in="SourceAlpha" type="matrix" values="0 0 0 0 0 0 0 0 0 0 0 0 0 0 0 0 0 0 127 0" result="hardAlpha"/>
<feOffset dy="1"/>
<feGaussianBlur stdDeviation="1.5"/>
<feColorMatrix type="matrix" values="0 0 0 0 0 0 0 0 0 0 0 0 0 0 0 0 0 0 0.05 0"/>
<feBlend mode="normal" in2="BackgroundImageFix" result="effect1_dropShadow_367_13899"/>
<feBlend mode="normal" in="SourceGraphic" in2="effect1_dropShadow_367_13899" result="shape"/>
</filter>
<clipPath id="clip0_367_13899">
<rect width="20" height="20" fill="white" transform="translate(298 22)"/>
</clipPath>
<clipPath id="clip1_367_13899">
<rect width="24" height="24" fill="white" transform="translate(338 20)"/>
</clipPath>
<clipPath id="clip2_367_13899">
<rect width="29" height="29" fill="white" transform="translate(20 17)"/>
</clipPath>
</defs>
</svg>
