<svg width="383" height="63" viewBox="0 0 383 63" fill="none" xmlns="http://www.w3.org/2000/svg">
<g filter="url(#filter0_d_367_13274)">
<mask id="path-1-outside-1_367_13274" maskUnits="userSpaceOnUse" x="3" y="2" width="377" height="57" fill="black">
<rect fill="white" x="3" y="2" width="377" height="57"/>
<path d="M4 3H379V58H4V3Z"/>
</mask>
<path d="M4 3H379V58H4V3Z" fill="white"/>
<path d="M4 3V2H3V3H4ZM379 3H380V2H379V3ZM379 58V59H380V58H379ZM4 58H3V59H4V58ZM4 4H379V2H4V4ZM378 3V58H380V3H378ZM379 57H4V59H379V57ZM5 58V3H3V58H5Z" fill="#F2F2F2" mask="url(#path-1-outside-1_367_13274)"/>
</g>
<defs>
<filter id="filter0_d_367_13274" x="0" y="0" width="383" height="63" filterUnits="userSpaceOnUse" color-interpolation-filters="sRGB">
<feFlood flood-opacity="0" result="BackgroundImageFix"/>
<feColorMatrix in="SourceAlpha" type="matrix" values="0 0 0 0 0 0 0 0 0 0 0 0 0 0 0 0 0 0 127 0" result="hardAlpha"/>
<feOffset dy="1"/>
<feGaussianBlur stdDeviation="1.5"/>
<feColorMatrix type="matrix" values="0 0 0 0 0 0 0 0 0 0 0 0 0 0 0 0 0 0 0.05 0"/>
<feBlend mode="normal" in2="BackgroundImageFix" result="effect1_dropShadow_367_13274"/>
<feBlend mode="normal" in="SourceGraphic" in2="effect1_dropShadow_367_13274" result="shape"/>
</filter>
</defs>
</svg>
