<svg width="375" height="56" viewBox="0 0 375 56" fill="none" xmlns="http://www.w3.org/2000/svg">
<mask id="path-1-outside-1_367_11855" maskUnits="userSpaceOnUse" x="0" y="0" width="375" height="56" fill="black">
<rect fill="white" width="375" height="56"/>
<path d="M0 0H375V55H0V0Z"/>
</mask>
<path d="M0 0H375V55H0V0Z" fill="white"/>
<path d="M375 54.5H0V55.5H375V54.5Z" fill="#F2F2F2" mask="url(#path-1-outside-1_367_11855)"/>
<g clip-path="url(#clip0_367_11855)">
<path d="M313.756 37.5774L308.781 32.6033C310.137 30.9454 310.803 28.83 310.643 26.6946C310.483 24.5591 309.507 22.567 307.919 21.1304C306.331 19.6937 304.252 18.9224 302.111 18.9759C299.97 19.0294 297.932 19.9037 296.418 21.418C294.904 22.9322 294.029 24.9705 293.976 27.1113C293.922 29.2521 294.694 31.3316 296.13 32.9196C297.567 34.5076 299.559 35.4827 301.694 35.6431C303.83 35.8036 305.945 35.1371 307.603 33.7816L312.577 38.7558C312.734 38.9076 312.945 38.9916 313.163 38.9897C313.382 38.9878 313.591 38.9001 313.746 38.7456C313.9 38.5911 313.988 38.3821 313.99 38.1636C313.991 37.9451 313.907 37.7346 313.756 37.5774ZM302.333 33.9999C301.015 33.9999 299.726 33.6089 298.629 32.8764C297.533 32.1439 296.679 31.1027 296.174 29.8845C295.669 28.6663 295.537 27.3259 295.795 26.0327C296.052 24.7395 296.687 23.5516 297.619 22.6192C298.551 21.6869 299.739 21.0519 301.033 20.7947C302.326 20.5375 303.666 20.6695 304.884 21.1741C306.103 21.6787 307.144 22.5331 307.876 23.6295C308.609 24.7258 309 26.0147 309 27.3333C308.998 29.1008 308.295 30.7953 307.045 32.0451C305.795 33.2949 304.101 33.998 302.333 33.9999Z" fill="#0C1A30"/>
</g>
<g clip-path="url(#clip1_367_11855)">
<path fill-rule="evenodd" clip-rule="evenodd" d="M353.5 30.35C353.65 31.25 353.8 32 354.1 32.9L355 35.45L354.25 36.5H349C349 37.25 348.7 38 348.1 38.6C347.5 39.2 346.75 39.5 346 39.5C345.25 39.5 344.35 39.2 343.9 38.6C343.3 38 343 37.25 343 36.5H337.75L337 35.45L337.9 32.9C338.2 31.7 338.5 30.5 338.5 29.3V26C338.5 24.95 338.65 23.9 339.1 23C339.55 21.95 340.15 21.2 340.9 20.45C341.65 19.7 342.55 19.25 343.6 18.95C344.35 18.65 345.25 18.5 346 18.5C345.7 18.95 345.4 19.55 345.1 20.15C344.8 20.15 344.5 20.15 344.05 20.45C343.3 20.6 342.55 21.05 341.95 21.65C341.35 22.1 340.75 22.85 340.45 23.6C340.15 24.35 340 25.1 340 26V29.3C340 30.65 339.7 32 339.4 33.35L338.8 35H353.2L352.6 33.35C352.337 32.561 352.189 31.655 352.056 30.839L352 30.5C352.6 30.5 353.05 30.5 353.5 30.35ZM346 38C346.3 38 346.75 37.85 347.05 37.55C347.35 37.25 347.5 36.95 347.5 36.5H344.5C344.5 36.95 344.65 37.25 344.95 37.55C345.25 37.85 345.7 38 346 38ZM356.5 23C356.5 24.1935 356.026 25.3381 355.182 26.182C354.338 27.0259 353.193 27.5 352 27.5C350.807 27.5 349.662 27.0259 348.818 26.182C347.974 25.3381 347.5 24.1935 347.5 23C347.5 21.8065 347.974 20.6619 348.818 19.818C349.662 18.9741 350.807 18.5 352 18.5C353.193 18.5 354.338 18.9741 355.182 19.818C356.026 20.6619 356.5 21.8065 356.5 23Z" fill="#040415"/>
<circle cx="352" cy="23" r="6" fill="#F4B421" stroke="#F9FAFB" stroke-width="2"/>
</g>
<defs>
<clipPath id="clip0_367_11855">
<rect width="20" height="20" fill="white" transform="translate(294 19)"/>
</clipPath>
<clipPath id="clip1_367_11855">
<rect width="24" height="24" fill="white" transform="translate(334 17)"/>
</clipPath>
</defs>
</svg>
