<svg width="375" height="56" viewBox="0 0 375 56" fill="none" xmlns="http://www.w3.org/2000/svg">
<mask id="path-1-outside-1_219_31009" maskUnits="userSpaceOnUse" x="0" y="0" width="375" height="56" fill="black">
<rect fill="white" width="375" height="56"/>
<path d="M0 0H375V55H0V0Z"/>
</mask>
<path d="M0 0H375V55H0V0Z" fill="white"/>
<path d="M375 54.5H0V55.5H375V54.5Z" fill="#F2F2F2" mask="url(#path-1-outside-1_219_31009)"/>
<g clip-path="url(#clip0_219_31009)">
<path d="M313.756 37.5775L308.782 32.6033C310.137 30.9455 310.804 28.8301 310.643 26.6946C310.483 24.5592 309.508 22.5671 307.92 21.1304C306.332 19.6938 304.252 18.9224 302.111 18.9759C299.971 19.0295 297.932 19.9038 296.418 21.418C294.904 22.9323 294.03 24.9706 293.976 27.1114C293.922 29.2522 294.694 31.3316 296.13 32.9197C297.567 34.5077 299.559 35.4828 301.695 35.6432C303.83 35.8037 305.946 35.1372 307.603 33.7817L312.578 38.7558C312.735 38.9076 312.945 38.9916 313.164 38.9897C313.382 38.9878 313.591 38.9002 313.746 38.7457C313.9 38.5912 313.988 38.3822 313.99 38.1637C313.992 37.9452 313.908 37.7347 313.756 37.5775ZM302.333 34C301.015 34 299.726 33.609 298.63 32.8765C297.533 32.1439 296.679 31.1027 296.174 29.8846C295.67 28.6664 295.538 27.3259 295.795 26.0327C296.052 24.7395 296.687 23.5516 297.619 22.6193C298.552 21.6869 299.74 21.052 301.033 20.7948C302.326 20.5375 303.666 20.6696 304.885 21.1741C306.103 21.6787 307.144 22.5332 307.877 23.6295C308.609 24.7259 309 26.0148 309 27.3333C308.998 29.1008 308.295 30.7954 307.045 32.0452C305.795 33.295 304.101 33.998 302.333 34Z" fill="#0C1A30"/>
</g>
<g clip-path="url(#clip1_219_31009)">
<path fill-rule="evenodd" clip-rule="evenodd" d="M353.5 30.35C353.65 31.25 353.8 32 354.1 32.9L355 35.45L354.25 36.5H349C349 37.25 348.7 38 348.1 38.6C347.5 39.2 346.75 39.5 346 39.5C345.25 39.5 344.35 39.2 343.9 38.6C343.3 38 343 37.25 343 36.5H337.75L337 35.45L337.9 32.9C338.2 31.7 338.5 30.5 338.5 29.3V26C338.5 24.95 338.65 23.9 339.1 23C339.55 21.95 340.15 21.2 340.9 20.45C341.65 19.7 342.55 19.25 343.6 18.95C344.35 18.65 345.25 18.5 346 18.5C345.7 18.95 345.4 19.55 345.1 20.15C344.8 20.15 344.5 20.15 344.05 20.45C343.3 20.6 342.55 21.05 341.95 21.65C341.35 22.1 340.75 22.85 340.45 23.6C340.15 24.35 340 25.1 340 26V29.3C340 30.65 339.7 32 339.4 33.35L338.8 35H353.2L352.6 33.35C352.337 32.561 352.189 31.655 352.056 30.839L352 30.5C352.6 30.5 353.05 30.5 353.5 30.35ZM346 38C346.3 38 346.75 37.85 347.05 37.55C347.35 37.25 347.5 36.95 347.5 36.5H344.5C344.5 36.95 344.65 37.25 344.95 37.55C345.25 37.85 345.7 38 346 38ZM356.5 23C356.5 24.1935 356.026 25.3381 355.182 26.182C354.338 27.0259 353.193 27.5 352 27.5C350.807 27.5 349.662 27.0259 348.818 26.182C347.974 25.3381 347.5 24.1935 347.5 23C347.5 21.8065 347.974 20.6619 348.818 19.818C349.662 18.9741 350.807 18.5 352 18.5C353.193 18.5 354.338 18.9741 355.182 19.818C356.026 20.6619 356.5 21.8065 356.5 23Z" fill="#040415"/>
<circle cx="352" cy="23" r="6" fill="#F4B421" stroke="#F9FAFB" stroke-width="2"/>
</g>
<g clip-path="url(#clip2_219_31009)">
<path d="M40.1667 35.75C40.4746 35.7503 40.7709 35.8683 40.9948 36.0797C41.2188 36.2911 41.3535 36.5801 41.3716 36.8875C41.3896 37.195 41.2896 37.4977 41.0919 37.7339C40.8943 37.9701 40.6139 38.1218 40.308 38.1582L40.1667 38.1667H20.8333C20.5254 38.1663 20.2291 38.0484 20.0052 37.837C19.7812 37.6256 19.6465 37.3366 19.6284 37.0292C19.6104 36.7217 19.7104 36.419 19.9081 36.1828C20.1057 35.9466 20.3861 35.7948 20.692 35.7585L20.8333 35.75H40.1667ZM40.1667 27.2917C40.4871 27.2917 40.7945 27.419 41.0211 27.6456C41.2477 27.8722 41.375 28.1795 41.375 28.5C41.375 28.8205 41.2477 29.1278 41.0211 29.3544C40.7945 29.581 40.4871 29.7083 40.1667 29.7083H20.8333C20.5129 29.7083 20.2055 29.581 19.9789 29.3544C19.7523 29.1278 19.625 28.8205 19.625 28.5C19.625 28.1795 19.7523 27.8722 19.9789 27.6456C20.2055 27.419 20.5129 27.2917 20.8333 27.2917H40.1667ZM40.1667 18.8333C40.4871 18.8333 40.7945 18.9606 41.0211 19.1872C41.2477 19.4139 41.375 19.7212 41.375 20.0417C41.375 20.3621 41.2477 20.6695 41.0211 20.8961C40.7945 21.1227 40.4871 21.25 40.1667 21.25H20.8333C20.5129 21.25 20.2055 21.1227 19.9789 20.8961C19.7523 20.6695 19.625 20.3621 19.625 20.0417C19.625 19.7212 19.7523 19.4139 19.9789 19.1872C20.2055 18.9606 20.5129 18.8333 20.8333 18.8333H40.1667Z" fill="#0C1A30"/>
</g>
<defs>
<clipPath id="clip0_219_31009">
<rect width="20" height="20" fill="white" transform="translate(294 19)"/>
</clipPath>
<clipPath id="clip1_219_31009">
<rect width="24" height="24" fill="white" transform="translate(334 17)"/>
</clipPath>
<clipPath id="clip2_219_31009">
<rect width="29" height="29" fill="white" transform="translate(16 14)"/>
</clipPath>
</defs>
</svg>
