<svg width="383" height="63" viewBox="0 0 383 63" fill="none" xmlns="http://www.w3.org/2000/svg">
<g filter="url(#filter0_d_367_12534)">
<mask id="path-1-outside-1_367_12534" maskUnits="userSpaceOnUse" x="3" y="2" width="377" height="57" fill="black">
<rect fill="white" x="3" y="2" width="377" height="57"/>
<path d="M4 3H379V58H4V3Z"/>
</mask>
<path d="M4 3H379V58H4V3Z" fill="white"/>
<path d="M4 3V2H3V3H4ZM379 3H380V2H379V3ZM379 58V59H380V58H379ZM4 58H3V59H4V58ZM4 4H379V2H4V4ZM378 3V58H380V3H378ZM379 57H4V59H379V57ZM5 58V3H3V58H5Z" fill="#F2F2F2" mask="url(#path-1-outside-1_367_12534)"/>
<g clip-path="url(#clip0_367_12534)">
<path d="M317.756 40.5775L312.781 35.6033C314.137 33.9455 314.803 31.8301 314.643 29.6946C314.483 27.5592 313.507 25.5671 311.919 24.1304C310.331 22.6938 308.252 21.9224 306.111 21.9759C303.97 22.0295 301.932 22.9038 300.418 24.418C298.904 25.9323 298.029 27.9706 297.976 30.1114C297.922 32.2522 298.694 34.3316 300.13 35.9197C301.567 37.5077 303.559 38.4828 305.694 38.6432C307.83 38.8037 309.945 38.1372 311.603 36.7817L316.577 41.7558C316.734 41.9076 316.945 41.9916 317.163 41.9897C317.382 41.9878 317.591 41.9002 317.746 41.7457C317.9 41.5912 317.988 41.3822 317.99 41.1637C317.991 40.9452 317.907 40.7347 317.756 40.5775ZM306.333 37C305.015 37 303.726 36.609 302.629 35.8765C301.533 35.1439 300.679 34.1027 300.174 32.8846C299.669 31.6664 299.537 30.3259 299.795 29.0327C300.052 27.7395 300.687 26.5516 301.619 25.6193C302.551 24.6869 303.739 24.052 305.033 23.7948C306.326 23.5375 307.666 23.6696 308.884 24.1741C310.103 24.6787 311.144 25.5332 311.876 26.6295C312.609 27.7259 313 29.0148 313 30.3333C312.998 32.1008 312.295 33.7954 311.045 35.0452C309.795 36.295 308.101 36.998 306.333 37Z" fill="#0C1A30"/>
</g>
<g clip-path="url(#clip1_367_12534)">
<path fill-rule="evenodd" clip-rule="evenodd" d="M357.5 33.35C357.65 34.25 357.8 35 358.1 35.9L359 38.45L358.25 39.5H353C353 40.25 352.7 41 352.1 41.6C351.5 42.2 350.75 42.5 350 42.5C349.25 42.5 348.35 42.2 347.9 41.6C347.3 41 347 40.25 347 39.5H341.75L341 38.45L341.9 35.9C342.2 34.7 342.5 33.5 342.5 32.3V29C342.5 27.95 342.65 26.9 343.1 26C343.55 24.95 344.15 24.2 344.9 23.45C345.65 22.7 346.55 22.25 347.6 21.95C348.35 21.65 349.25 21.5 350 21.5C349.7 21.95 349.4 22.55 349.1 23.15C348.8 23.15 348.5 23.15 348.05 23.45C347.3 23.6 346.55 24.05 345.95 24.65C345.35 25.1 344.75 25.85 344.45 26.6C344.15 27.35 344 28.1 344 29V32.3C344 33.65 343.7 35 343.4 36.35L342.8 38H357.2L356.6 36.35C356.337 35.561 356.189 34.655 356.056 33.839L356 33.5C356.6 33.5 357.05 33.5 357.5 33.35ZM350 41C350.3 41 350.75 40.85 351.05 40.55C351.35 40.25 351.5 39.95 351.5 39.5H348.5C348.5 39.95 348.65 40.25 348.95 40.55C349.25 40.85 349.7 41 350 41ZM360.5 26C360.5 27.1935 360.026 28.3381 359.182 29.182C358.338 30.0259 357.193 30.5 356 30.5C354.807 30.5 353.662 30.0259 352.818 29.182C351.974 28.3381 351.5 27.1935 351.5 26C351.5 24.8065 351.974 23.6619 352.818 22.818C353.662 21.9741 354.807 21.5 356 21.5C357.193 21.5 358.338 21.9741 359.182 22.818C360.026 23.6619 360.5 24.8065 360.5 26Z" fill="#0C1A30"/>
<circle cx="356" cy="26" r="6" fill="#F4B421" stroke="#F9FAFB" stroke-width="2"/>
</g>
</g>
<defs>
<filter id="filter0_d_367_12534" x="0" y="0" width="383" height="63" filterUnits="userSpaceOnUse" color-interpolation-filters="sRGB">
<feFlood flood-opacity="0" result="BackgroundImageFix"/>
<feColorMatrix in="SourceAlpha" type="matrix" values="0 0 0 0 0 0 0 0 0 0 0 0 0 0 0 0 0 0 127 0" result="hardAlpha"/>
<feOffset dy="1"/>
<feGaussianBlur stdDeviation="1.5"/>
<feColorMatrix type="matrix" values="0 0 0 0 0 0 0 0 0 0 0 0 0 0 0 0 0 0 0.05 0"/>
<feBlend mode="normal" in2="BackgroundImageFix" result="effect1_dropShadow_367_12534"/>
<feBlend mode="normal" in="SourceGraphic" in2="effect1_dropShadow_367_12534" result="shape"/>
</filter>
<clipPath id="clip0_367_12534">
<rect width="20" height="20" fill="white" transform="translate(298 22)"/>
</clipPath>
<clipPath id="clip1_367_12534">
<rect width="24" height="24" fill="white" transform="translate(338 20)"/>
</clipPath>
</defs>
</svg>
