<svg width="20" height="20" viewBox="0 0 20 20" fill="none" xmlns="http://www.w3.org/2000/svg">
<path d="M18.0895 9.41066L11.4228 2.74399C11.3063 2.62748 11.1578 2.54814 10.9962 2.516C10.8346 2.48386 10.667 2.50037 10.5148 2.56342C10.3625 2.62648 10.2324 2.73327 10.1408 2.87027C10.0493 3.00728 10.0004 3.16836 10.0003 3.33316V6.28732C7.7239 6.49798 5.60801 7.55054 4.06673 9.23901C2.52545 10.9275 1.66972 13.1303 1.66699 15.4165V16.6665C1.66712 16.8395 1.72108 17.0081 1.82139 17.1491C1.92169 17.29 2.06337 17.3962 2.22676 17.453C2.39016 17.5098 2.56718 17.5143 2.73327 17.466C2.89935 17.4176 3.04628 17.3188 3.15366 17.1832C3.97007 16.2123 4.97179 15.4139 6.10028 14.8345C7.22877 14.2552 8.4614 13.9065 9.72616 13.809C9.76783 13.804 9.87199 13.7957 10.0003 13.7873V16.6665C10.0004 16.8313 10.0493 16.9924 10.1408 17.1294C10.2324 17.2664 10.3625 17.3732 10.5148 17.4362C10.667 17.4993 10.8346 17.5158 10.9962 17.4836C11.1578 17.4515 11.3063 17.3722 11.4228 17.2557L18.0895 10.589C18.2457 10.4327 18.3335 10.2208 18.3335 9.99982C18.3335 9.77885 18.2457 9.56693 18.0895 9.41066ZM11.667 14.6548V12.9165C11.667 12.6955 11.5792 12.4835 11.4229 12.3272C11.2666 12.171 11.0547 12.0832 10.8337 12.0832C10.6212 12.0832 9.75366 12.1248 9.53199 12.154C7.28604 12.3609 5.14817 13.2142 3.37699 14.6107C3.57803 12.7727 4.44994 11.0734 5.82579 9.83829C7.20163 8.60313 8.98473 7.91886 10.8337 7.91649C11.0547 7.91649 11.2666 7.82869 11.4229 7.67241C11.5792 7.51613 11.667 7.30417 11.667 7.08316V5.34482L16.322 9.99982L11.667 14.6548Z" fill="black"/>
</svg>
