<svg width="9" height="9" viewBox="0 0 9 9" fill="none" xmlns="http://www.w3.org/2000/svg">
<path d="M8.11165 5.56662L6.98737 5.43576C6.85518 5.41993 6.72118 5.43485 6.59545 5.4794C6.46972 5.52395 6.35553 5.59696 6.26146 5.69296L5.44703 6.52322C4.19049 5.87175 3.16917 4.83058 2.53011 3.54962L3.34897 2.71485C3.5393 2.52082 3.63226 2.25008 3.60127 1.97483L3.47291 0.837738C3.44781 0.617618 3.34419 0.414592 3.18176 0.267316C3.01934 0.12004 2.80946 0.0387998 2.59208 0.0390631H1.82633C1.32617 0.0390631 0.910095 0.463218 0.941079 0.973107C1.17567 4.8266 4.19882 7.90398 7.97443 8.14313C8.4746 8.17472 8.89067 7.75056 8.89067 7.24067V6.46005C8.8951 6.00431 8.5587 5.62076 8.11165 5.56662Z" fill="#8B8B8B"/>
</svg>
