<svg width="9" height="9" viewBox="0 0 9 9" fill="none" xmlns="http://www.w3.org/2000/svg">
<path d="M8.11165 5.56759L6.98737 5.43674C6.85518 5.42091 6.72118 5.43583 6.59545 5.48038C6.46972 5.52492 6.35553 5.59794 6.26146 5.69394L5.44703 6.5242C4.19049 5.87272 3.16917 4.83155 2.53011 3.5506L3.34897 2.71583C3.5393 2.5218 3.63226 2.25106 3.60127 1.97581L3.47291 0.838715C3.44781 0.618594 3.34419 0.415569 3.18176 0.268293C3.01934 0.121017 2.80946 0.0397763 2.59208 0.0400397H1.82633C1.32617 0.0400397 0.910095 0.464195 0.941079 0.974083C1.17567 4.82758 4.19882 7.90496 7.97443 8.14411C8.4746 8.17569 8.89067 7.75154 8.89067 7.24165V6.46103C8.8951 6.00528 8.5587 5.62174 8.11165 5.56759Z" fill="#8B8B8B"/>
</svg>
