<svg width="16" height="16" viewBox="0 0 16 16" fill="none" xmlns="http://www.w3.org/2000/svg">
<path d="M14.1573 10.9109L11.9381 10.6526C11.6771 10.6214 11.4126 10.6508 11.1644 10.7388C10.9163 10.8267 10.6909 10.9708 10.5052 11.1603L8.89756 12.7992C6.41727 11.5132 4.40127 9.45803 3.13982 6.92954L4.75618 5.28177C5.13188 4.89878 5.31536 4.36436 5.2542 3.82105L5.00082 1.57652C4.95129 1.14202 4.74674 0.741262 4.42613 0.450552C4.10552 0.159843 3.69123 -0.000518607 3.26214 1.26004e-06H1.75063C0.763336 1.26004e-06 -0.05795 0.837246 0.00320955 1.84372C0.466275 9.45018 6.4337 15.5247 13.8864 15.9967C14.8737 16.0591 15.695 15.2218 15.695 14.2154V12.6745C15.7037 11.7749 15.0397 11.0178 14.1573 10.9109Z" fill="#8B8B8B"/>
</svg>
